<svg width="229" height="248" viewBox="0 0 229 248" fill="none" xmlns="http://www.w3.org/2000/svg">
<path d="M214.1 79.0605V1.26054C214.1 0.0605361 212.6 -0.439467 211.8 0.460533L126.8 106.661C126.1 107.461 126.7 108.761 127.8 108.761H189.2C190.9 108.761 192.4 107.961 193.4 106.661L212.8 82.4605C213.6 81.5605 214.1 80.3605 214.1 79.0605ZM15.3 82.5605L79.1 162.361C80.1 163.661 81.7 164.361 83.4 164.361H144.8C145.9 164.361 146.5 163.161 145.8 162.361L16.3 0.560539C15.5 -0.339461 14 0.160542 14 1.36054V79.1605C14.1 80.3605 14.5 81.5605 15.3 82.5605Z" fill="white"/>
<path d="M4.08 200.304H9.024C9.184 200.304 9.328 200.368 9.456 200.496C9.584 200.592 9.648 200.72 9.648 200.88V223.536L26.88 201.072C27.296 200.56 27.824 200.304 28.464 200.304H34.56C34.752 200.304 34.88 200.384 34.944 200.544C35.04 200.704 35.04 200.848 34.944 200.976L10.224 233.136C9.808 233.648 9.28 233.904 8.64 233.904H4.08C3.92 233.904 3.776 233.856 3.648 233.76C3.552 233.632 3.504 233.488 3.504 233.328V200.88C3.504 200.72 3.552 200.592 3.648 200.496C3.776 200.368 3.92 200.304 4.08 200.304ZM19.3226 233.328L43.9946 201.168C44.4106 200.656 44.9386 200.4 45.5786 200.4H50.1386C50.5226 200.4 50.7146 200.592 50.7146 200.976V233.424C50.7146 233.808 50.5226 234 50.1386 234H45.5786C44.9386 234 44.4106 233.744 43.9946 233.232L35.6906 222.384L27.3386 233.232C26.9226 233.744 26.3946 234 25.7546 234H19.6586C19.4986 234 19.3706 233.936 19.2746 233.808C19.1786 233.648 19.1946 233.488 19.3226 233.328ZM39.6746 217.2L44.6186 223.632V210.768L39.6746 217.2ZM58.2206 200.4H63.1646C63.5806 200.4 63.7886 200.592 63.7886 200.976V227.904H77.2286C77.4206 227.904 77.5486 227.984 77.6126 228.144C77.7086 228.304 77.7086 228.448 77.6126 228.576L74.0126 233.232C73.5966 233.744 73.0846 234 72.4766 234H58.2206C58.0606 234 57.9166 233.952 57.7886 233.856C57.6926 233.728 57.6446 233.584 57.6446 233.424V200.976C57.6446 200.816 57.6926 200.688 57.7886 200.592C57.9166 200.464 58.0606 200.4 58.2206 200.4ZM80.0663 217.056C80.0663 214.592 80.5143 212.304 81.4103 210.192C82.3383 208.048 83.5703 206.208 85.1063 204.672C86.6743 203.104 88.5143 201.888 90.6263 201.024C92.7383 200.128 95.0103 199.696 97.4423 199.728C99.8743 199.76 102.146 200.24 104.258 201.168C106.37 202.096 108.194 203.36 109.73 204.96C111.298 206.56 112.53 208.432 113.426 210.576C114.322 212.688 114.754 214.944 114.722 217.344C114.69 219.776 114.21 222.048 113.282 224.16C112.354 226.272 111.09 228.112 109.49 229.68C107.922 231.248 106.082 232.48 103.97 233.376C101.858 234.24 99.5863 234.672 97.1543 234.672C94.7543 234.672 92.4983 234.224 90.3863 233.328C88.3063 232.4 86.4983 231.152 84.9622 229.584C83.4263 227.984 82.2263 226.112 81.3623 223.968C80.4983 221.824 80.0663 219.52 80.0663 217.056ZM86.2103 217.296C86.2103 218.864 86.5143 220.352 87.1223 221.76C87.7303 223.168 88.5463 224.4 89.5703 225.456C90.5943 226.512 91.7783 227.344 93.1223 227.952C94.4663 228.56 95.9063 228.864 97.4423 228.864C98.9463 228.832 100.37 228.496 101.714 227.856C103.058 227.216 104.226 226.368 105.218 225.312C106.242 224.224 107.042 222.976 107.618 221.568C108.194 220.128 108.466 218.624 108.434 217.056C108.434 215.488 108.13 214 107.522 212.592C106.914 211.184 106.098 209.968 105.074 208.944C104.05 207.888 102.85 207.056 101.474 206.448C100.13 205.84 98.7063 205.536 97.2023 205.536C95.6983 205.568 94.2743 205.904 92.9303 206.544C91.5863 207.152 90.4183 208 89.4263 209.088C88.4343 210.144 87.6503 211.376 87.0743 212.784C86.4983 214.192 86.2103 215.696 86.2103 217.296ZM130.604 233.328L155.276 201.168C155.692 200.656 156.22 200.4 156.86 200.4H161.42C161.804 200.4 161.996 200.592 161.996 200.976V233.424C161.996 233.808 161.804 234 161.42 234H156.86C156.22 234 155.692 233.744 155.276 233.232L146.972 222.384L138.62 233.232C138.204 233.744 137.676 234 137.036 234H130.94C130.78 234 130.652 233.936 130.556 233.808C130.46 233.648 130.476 233.488 130.604 233.328ZM150.956 217.2L155.9 223.632V210.768L150.956 217.2ZM168.926 233.328V200.88C168.926 200.72 168.974 200.592 169.07 200.496C169.198 200.368 169.342 200.304 169.502 200.304H194.846C195.006 200.304 195.134 200.368 195.23 200.496C195.358 200.592 195.422 200.72 195.422 200.88V207.936C195.422 208.384 195.278 208.784 194.99 209.136L187.982 218.304C187.566 218.816 187.038 219.072 186.398 219.072H180.302C180.11 219.072 179.966 219.008 179.87 218.88C179.806 218.72 179.838 218.56 179.966 218.4L189.182 206.4H175.07V233.328C175.07 233.712 174.862 233.904 174.446 233.904H169.502C169.342 233.904 169.198 233.856 169.07 233.76C168.974 233.632 168.926 233.488 168.926 233.328ZM200.426 233.328V200.88C200.426 200.72 200.474 200.592 200.57 200.496C200.698 200.368 200.842 200.304 201.002 200.304H226.346C226.506 200.304 226.634 200.368 226.73 200.496C226.858 200.592 226.922 200.72 226.922 200.88V207.936C226.922 208.384 226.778 208.784 226.49 209.136L219.482 218.304C219.066 218.816 218.538 219.072 217.898 219.072H211.802C211.61 219.072 211.466 219.008 211.37 218.88C211.306 218.72 211.338 218.56 211.466 218.4L220.682 206.4H206.57V233.328C206.57 233.712 206.362 233.904 205.946 233.904H201.002C200.842 233.904 200.698 233.856 200.57 233.76C200.474 233.632 200.426 233.488 200.426 233.328Z" fill="white"/>
</svg>
