<svg width="201" height="165" viewBox="0 0 201 165" fill="none" xmlns="http://www.w3.org/2000/svg">
<path d="M200.789 79.0698V1.26975C200.789 0.0697525 199.289 -0.430251 198.489 0.469749L113.489 106.67C112.789 107.47 113.389 108.77 114.489 108.77H175.889C177.589 108.77 179.089 107.97 180.089 106.67L199.489 82.4697C200.289 81.5697 200.789 80.3698 200.789 79.0698ZM1.98884 82.5698L65.7888 162.37C66.7888 163.67 68.3888 164.37 70.0888 164.37H131.489C132.589 164.37 133.189 163.17 132.489 162.37L2.98884 0.569755C2.18884 -0.330244 0.688843 0.169759 0.688843 1.36976V79.1698C0.788843 80.3698 1.18884 81.5698 1.98884 82.5698Z" fill="white"/>
</svg>
